<svg width="182" height="48" viewBox="0 0 182 48" fill="none" xmlns="http://www.w3.org/2000/svg">
<path d="M44 0L45.0607 4.93934L50 6L45.0607 7.06066L44 12L42.9393 7.06066L38 6L42.9393 4.93934L44 0Z" fill="white"/>
<path d="M20.1835 21.8683V6H23.8242V21.8681L22.0003 23.6859L20.1835 21.8683Z" fill="white"/>
<path d="M0 28.8173V25.1827H9.84692L14.3961 27.0017L9.9349 28.8173H0Z" fill="white"/>
<path d="M29.6077 27L34.149 25.1827H44V28.8173H34.149L29.6077 27Z" fill="white"/>
<path d="M20.1835 32.8345L22.0002 31.3023L23.8242 32.8347V48H20.1835V32.8345Z" fill="white"/>
<path d="M2.02432 44.5381L8.93388 37.5699L13.1208 36.111L11.4814 40.027L4.51636 47.0512L2.02432 44.5381Z" fill="white"/>
<path d="M32.6488 40.027L31.0094 36.111L35.1963 37.5699L42.1059 44.5381L39.6139 47.0512L32.6488 40.027Z" fill="white"/>
<path d="M66.9341 29.3047C71.2759 29.3047 73.9165 27.1846 73.9165 23.8457V23.833C73.9165 21.002 72.2915 19.4658 68.5083 18.666L66.5024 18.2471C64.2173 17.752 63.1763 16.9141 63.1763 15.543V15.5303C63.1763 13.9307 64.6235 12.8516 66.896 12.8389C69.0669 12.8389 70.5396 13.8672 70.7935 15.5684L70.8062 15.7461H73.5737L73.561 15.5303C73.3706 12.458 70.7554 10.376 66.9341 10.376C63.062 10.376 60.3071 12.5215 60.2944 15.6445V15.6572C60.2944 18.374 62.0337 20.0244 65.6265 20.7861L67.6196 21.2051C70.0444 21.7383 71.0474 22.5381 71.0474 24.0107V24.0234C71.0474 25.7373 69.4985 26.8418 67.0483 26.8418C64.5981 26.8418 62.9097 25.7881 62.6558 24.0996L62.6304 23.9346H59.8628L59.8755 24.125C60.104 27.3496 62.8208 29.3047 66.9341 29.3047ZM81.8755 29.2666C82.434 29.2666 82.9546 29.2031 83.2719 29.1523V27.0322C83.0688 27.0576 82.8276 27.083 82.5356 27.083C81.3803 27.083 80.771 26.6768 80.771 25.3184V17.8281H83.2719V15.6445H80.771V12.166H77.9653V15.6445H76.0483V17.8281H77.9653V25.4834C77.9653 28.1494 79.2348 29.2666 81.8755 29.2666ZM90.3041 29.2412C92.0688 29.2412 93.6176 28.3271 94.392 26.8926H94.4428V29H97.1977V19.7959C97.1977 17.1172 95.1283 15.3906 91.8656 15.3906C88.5776 15.3906 86.5844 17.1553 86.394 19.4531L86.3813 19.5928H88.9711L88.9965 19.4785C89.225 18.4121 90.2026 17.6631 91.7895 17.6631C93.4906 17.6631 94.4428 18.5518 94.4428 20.0244V21.0273L90.8119 21.2432C87.6508 21.4336 85.8481 22.8555 85.8481 25.1787V25.2041C85.8481 27.6035 87.6381 29.2412 90.3041 29.2412ZM88.6156 25.1406V25.1152C88.6156 23.9854 89.5297 23.2617 91.1801 23.1602L94.4428 22.957V23.998C94.4428 25.7373 92.9828 27.0449 91.0531 27.0449C89.5805 27.0449 88.6156 26.3086 88.6156 25.1406ZM100.904 29H103.646V20.9639C103.646 19.0723 104.738 17.8916 106.502 17.8916C107.036 17.8916 107.518 17.9551 107.734 18.0439V15.4922C107.518 15.4541 107.175 15.3906 106.782 15.3906C105.207 15.3906 104.014 16.3301 103.608 17.8535H103.544V15.6445H100.904V29ZM121.671 29H124.515V13.1309H130.114V10.6807H116.06V13.1309H121.671V29ZM130.658 29H133.401V20.9639C133.401 19.0723 134.492 17.8916 136.257 17.8916C136.79 17.8916 137.273 17.9551 137.489 18.0439V15.4922C137.273 15.4541 136.93 15.3906 136.536 15.3906C134.962 15.3906 133.769 16.3301 133.363 17.8535H133.299V15.6445H130.658V29ZM143.873 29.2412C145.638 29.2412 147.187 28.3271 147.961 26.8926H148.012V29H150.767V19.7959C150.767 17.1172 148.697 15.3906 145.435 15.3906C142.147 15.3906 140.154 17.1553 139.963 19.4531L139.95 19.5928H142.54L142.566 19.4785C142.794 18.4121 143.772 17.6631 145.359 17.6631C147.06 17.6631 148.012 18.5518 148.012 20.0244V21.0273L144.381 21.2432C141.22 21.4336 139.417 22.8555 139.417 25.1787V25.2041C139.417 27.6035 141.207 29.2412 143.873 29.2412ZM142.185 25.1406V25.1152C142.185 23.9854 143.099 23.2617 144.749 23.1602L148.012 22.957V23.998C148.012 25.7373 146.552 27.0449 144.622 27.0449C143.15 27.0449 142.185 26.3086 142.185 25.1406ZM160.211 29.2666C163.423 29.2666 165.657 27.21 165.949 24.5312L165.962 24.4424H163.321L163.309 24.5439C162.979 25.9912 161.9 26.9688 160.211 26.9688C158.091 26.9688 156.682 25.2549 156.682 22.335V22.3223C156.682 19.4658 158.066 17.6885 160.198 17.6885C161.988 17.6885 163.004 18.793 163.296 20.1006L163.321 20.2021H165.937L165.924 20.1133C165.695 17.5996 163.613 15.3906 160.173 15.3906C156.364 15.3906 153.876 18.0693 153.876 22.2969V22.3096C153.876 26.5879 156.314 29.2666 160.211 29.2666ZM169.097 29H171.839V24.1885L172.982 23.0586L177.514 29H180.7L175 21.4082L180.485 15.6445H177.26L171.902 21.3447H171.839V10.6807H169.097V29Z" fill="white"/>
<path d="M59.127 45H60.2744L60.9141 43.0957H63.6045L64.2441 45H65.3965L62.8525 37.9541H61.6709L59.127 45ZM62.2471 39.1211H62.2715L63.3115 42.2168H61.207L62.2471 39.1211ZM74.4166 45.1172C76.0865 45.1172 77.1021 44.3018 77.1021 43.0176V43.0127C77.1021 41.9238 76.4771 41.333 75.0221 41.0254L74.2506 40.8643C73.3717 40.6738 72.9713 40.3516 72.9713 39.8242V39.8193C72.9713 39.2041 73.5279 38.7891 74.402 38.7842C75.2369 38.7842 75.8033 39.1797 75.901 39.834L75.9059 39.9023H76.9703L76.9654 39.8193C76.8922 38.6377 75.8863 37.8369 74.4166 37.8369C72.9273 37.8369 71.8678 38.6621 71.8629 39.8633V39.8682C71.8629 40.9131 72.5318 41.5479 73.9137 41.8408L74.6803 42.002C75.6129 42.207 75.9986 42.5146 75.9986 43.0811V43.0859C75.9986 43.7451 75.4029 44.1699 74.4605 44.1699C73.5182 44.1699 72.8687 43.7646 72.7711 43.1152L72.7613 43.0518H71.6969L71.7018 43.125C71.7896 44.3652 72.8346 45.1172 74.4166 45.1172ZM86.3908 45.1172C88.0607 45.1172 89.0764 44.3018 89.0764 43.0176V43.0127C89.0764 41.9238 88.4514 41.333 86.9963 41.0254L86.2248 40.8643C85.3459 40.6738 84.9455 40.3516 84.9455 39.8242V39.8193C84.9455 39.2041 85.5021 38.7891 86.3762 38.7842C87.2111 38.7842 87.7775 39.1797 87.8752 39.834L87.8801 39.9023H88.9445L88.9396 39.8193C88.8664 38.6377 87.8605 37.8369 86.3908 37.8369C84.9016 37.8369 83.842 38.6621 83.8371 39.8633V39.8682C83.8371 40.9131 84.5061 41.5479 85.8879 41.8408L86.6545 42.002C87.5871 42.207 87.9729 42.5146 87.9729 43.0811V43.0859C87.9729 43.7451 87.3771 44.1699 86.4348 44.1699C85.4924 44.1699 84.843 43.7646 84.7453 43.1152L84.7355 43.0518H83.6711L83.676 43.125C83.7639 44.3652 84.8088 45.1172 86.3908 45.1172ZM99.0096 45.1172C101.046 45.1172 102.31 43.7158 102.31 41.4795V41.4697C102.31 39.2383 101.041 37.8369 99.0096 37.8369C96.9832 37.8369 95.7088 39.2334 95.7088 41.4697V41.4795C95.7088 43.7207 96.9783 45.1172 99.0096 45.1172ZM99.0096 44.1504C97.6717 44.1504 96.8221 43.1201 96.8221 41.4795V41.4697C96.8221 39.8291 97.6766 38.8037 99.0096 38.8037C100.347 38.8037 101.192 39.834 101.192 41.4697V41.4795C101.192 43.1055 100.362 44.1504 99.0096 44.1504ZM112.268 45.1172C113.826 45.1172 114.993 44.1748 115.212 42.7734L115.217 42.7246H114.133L114.119 42.7686C113.855 43.6621 113.205 44.1504 112.268 44.1504C110.964 44.1504 110.12 43.1055 110.12 41.4746V41.4697C110.12 39.8389 110.959 38.8037 112.268 38.8037C113.215 38.8037 113.87 39.3066 114.104 40.1318L114.133 40.2295H115.217L115.207 40.1855C114.988 38.7939 113.821 37.8369 112.268 37.8369C110.271 37.8369 109.001 39.2334 109.001 41.4697V41.4746C109.001 43.7109 110.271 45.1172 112.268 45.1172ZM122.108 45H123.202V37.9541H122.108V45ZM129.879 45H131.026L131.666 43.0957H134.356L134.996 45H136.148L133.604 37.9541H132.422L129.879 45ZM132.999 39.1211H133.023L134.063 42.2168H131.959L132.999 39.1211ZM143.606 45H144.699V38.8965H146.853V37.9541H141.447V38.8965H143.606V45ZM153.646 45H154.74V37.9541H153.646V45ZM164.986 45.1172C167.022 45.1172 168.287 43.7158 168.287 41.4795V41.4697C168.287 39.2383 167.017 37.8369 164.986 37.8369C162.959 37.8369 161.685 39.2334 161.685 41.4697V41.4795C161.685 43.7207 162.954 45.1172 164.986 45.1172ZM164.986 44.1504C163.648 44.1504 162.798 43.1201 162.798 41.4795V41.4697C162.798 39.8291 163.653 38.8037 164.986 38.8037C166.324 38.8037 167.168 39.834 167.168 41.4697V41.4795C167.168 43.1055 166.338 44.1504 164.986 44.1504ZM175.231 45H176.315V39.7803H176.345L179.973 45H180.979V37.9541H179.895V43.1641H179.865L176.242 37.9541H175.231V45Z" fill="white"/>
</svg>
